<mxfile host="app.diagrams.net" modified="2024-02-23T11:44:50.037Z" agent="Mozilla/5.0 (Windows NT 10.0; Win64; x64; rv:123.0) Gecko/20100101 Firefox/123.0" etag="nZhI1tfBYiM3Zf1werkt" version="23.1.5" type="device">
  <diagram name="Page-1" id="HOamRKEhcgr0epngXT2c">
    <mxGraphModel dx="954" dy="530" grid="1" gridSize="10" guides="1" tooltips="1" connect="1" arrows="1" fold="1" page="1" pageScale="1" pageWidth="850" pageHeight="1100" math="0" shadow="0">
      <root>
        <mxCell id="0" />
        <mxCell id="1" parent="0" />
        <mxCell id="roSYkn4s_pg60QvExu8k-3" value="" style="edgeStyle=orthogonalEdgeStyle;rounded=0;orthogonalLoop=1;jettySize=auto;html=1;" parent="1" source="oRODH1_oDBL0VGA5POtY-1" target="roSYkn4s_pg60QvExu8k-2" edge="1">
          <mxGeometry relative="1" as="geometry" />
        </mxCell>
        <mxCell id="oRODH1_oDBL0VGA5POtY-1" value="&lt;h1&gt;&lt;font style=&quot;font-size: 18px;&quot;&gt;start&lt;/font&gt;&lt;/h1&gt;" style="ellipse;whiteSpace=wrap;html=1;" parent="1" vertex="1">
          <mxGeometry x="245" y="50" width="230" height="60" as="geometry" />
        </mxCell>
        <mxCell id="oRODH1_oDBL0VGA5POtY-2" style="edgeStyle=orthogonalEdgeStyle;rounded=0;orthogonalLoop=1;jettySize=auto;html=1;exitX=0.5;exitY=1;exitDx=0;exitDy=0;" parent="1" source="oRODH1_oDBL0VGA5POtY-1" target="oRODH1_oDBL0VGA5POtY-1" edge="1">
          <mxGeometry relative="1" as="geometry" />
        </mxCell>
        <mxCell id="oRODH1_oDBL0VGA5POtY-6" value="Input" style="text;html=1;align=center;verticalAlign=middle;whiteSpace=wrap;rounded=0;" parent="1" vertex="1">
          <mxGeometry x="160" y="270" width="60" height="30" as="geometry" />
        </mxCell>
        <mxCell id="roSYkn4s_pg60QvExu8k-18" value="" style="edgeStyle=orthogonalEdgeStyle;rounded=0;orthogonalLoop=1;jettySize=auto;html=1;" parent="1" source="roSYkn4s_pg60QvExu8k-19" edge="1">
          <mxGeometry relative="1" as="geometry">
            <mxPoint x="360" y="340" as="targetPoint" />
            <Array as="points">
              <mxPoint x="570" y="340" />
            </Array>
          </mxGeometry>
        </mxCell>
        <mxCell id="oRODH1_oDBL0VGA5POtY-10" value="A += (2 * i - 1)" style="rounded=0;whiteSpace=wrap;html=1;" parent="1" vertex="1">
          <mxGeometry x="270" y="500" width="180" height="70" as="geometry" />
        </mxCell>
        <mxCell id="oRODH1_oDBL0VGA5POtY-11" value="&lt;div&gt;Process&lt;/div&gt;" style="text;html=1;align=center;verticalAlign=middle;whiteSpace=wrap;rounded=0;" parent="1" vertex="1">
          <mxGeometry x="160" y="170" width="60" height="30" as="geometry" />
        </mxCell>
        <mxCell id="oRODH1_oDBL0VGA5POtY-15" value="&lt;h1&gt;&lt;font style=&quot;font-size: 18px;&quot;&gt;End&lt;/font&gt;&lt;/h1&gt;" style="ellipse;whiteSpace=wrap;html=1;" parent="1" vertex="1">
          <mxGeometry x="245" y="710" width="230" height="60" as="geometry" />
        </mxCell>
        <mxCell id="oRODH1_oDBL0VGA5POtY-24" value="" style="edgeStyle=orthogonalEdgeStyle;rounded=0;orthogonalLoop=1;jettySize=auto;html=1;" parent="1" source="oRODH1_oDBL0VGA5POtY-16" target="oRODH1_oDBL0VGA5POtY-15" edge="1">
          <mxGeometry relative="1" as="geometry" />
        </mxCell>
        <mxCell id="oRODH1_oDBL0VGA5POtY-16" value="A" style="shape=parallelogram;perimeter=parallelogramPerimeter;whiteSpace=wrap;html=1;fixedSize=1;" parent="1" vertex="1">
          <mxGeometry x="240" y="600" width="240" height="60" as="geometry" />
        </mxCell>
        <mxCell id="oRODH1_oDBL0VGA5POtY-18" value="Output" style="text;html=1;align=center;verticalAlign=middle;whiteSpace=wrap;rounded=0;" parent="1" vertex="1">
          <mxGeometry x="170" y="600" width="60" height="30" as="geometry" />
        </mxCell>
        <mxCell id="roSYkn4s_pg60QvExu8k-9" value="" style="edgeStyle=orthogonalEdgeStyle;rounded=0;orthogonalLoop=1;jettySize=auto;html=1;" parent="1" source="oRODH1_oDBL0VGA5POtY-33" target="roSYkn4s_pg60QvExu8k-5" edge="1">
          <mxGeometry relative="1" as="geometry" />
        </mxCell>
        <mxCell id="oRODH1_oDBL0VGA5POtY-33" value="n" style="shape=parallelogram;perimeter=parallelogramPerimeter;whiteSpace=wrap;html=1;fixedSize=1;" parent="1" vertex="1">
          <mxGeometry x="240" y="260" width="240" height="60" as="geometry" />
        </mxCell>
        <mxCell id="roSYkn4s_pg60QvExu8k-4" value="" style="edgeStyle=orthogonalEdgeStyle;rounded=0;orthogonalLoop=1;jettySize=auto;html=1;" parent="1" source="roSYkn4s_pg60QvExu8k-2" target="oRODH1_oDBL0VGA5POtY-33" edge="1">
          <mxGeometry relative="1" as="geometry" />
        </mxCell>
        <mxCell id="roSYkn4s_pg60QvExu8k-2" value="n = 0 , i = 1, A = 0" style="rounded=0;whiteSpace=wrap;html=1;" parent="1" vertex="1">
          <mxGeometry x="240" y="155" width="240" height="70" as="geometry" />
        </mxCell>
        <mxCell id="roSYkn4s_pg60QvExu8k-6" value="" style="edgeStyle=orthogonalEdgeStyle;rounded=0;orthogonalLoop=1;jettySize=auto;html=1;" parent="1" source="roSYkn4s_pg60QvExu8k-5" target="oRODH1_oDBL0VGA5POtY-10" edge="1">
          <mxGeometry relative="1" as="geometry" />
        </mxCell>
        <mxCell id="roSYkn4s_pg60QvExu8k-8" value="" style="edgeStyle=orthogonalEdgeStyle;rounded=0;orthogonalLoop=1;jettySize=auto;html=1;" parent="1" source="roSYkn4s_pg60QvExu8k-5" target="oRODH1_oDBL0VGA5POtY-16" edge="1">
          <mxGeometry relative="1" as="geometry">
            <mxPoint x="110" y="640" as="targetPoint" />
            <Array as="points">
              <mxPoint x="160" y="400" />
              <mxPoint x="160" y="630" />
            </Array>
          </mxGeometry>
        </mxCell>
        <mxCell id="roSYkn4s_pg60QvExu8k-5" value="i &amp;lt;= n" style="rhombus;whiteSpace=wrap;html=1;" parent="1" vertex="1">
          <mxGeometry x="275" y="360" width="170" height="80" as="geometry" />
        </mxCell>
        <mxCell id="roSYkn4s_pg60QvExu8k-11" value="No" style="text;html=1;align=center;verticalAlign=middle;whiteSpace=wrap;rounded=0;" parent="1" vertex="1">
          <mxGeometry x="210" y="370" width="60" height="30" as="geometry" />
        </mxCell>
        <mxCell id="roSYkn4s_pg60QvExu8k-12" value="Yes" style="text;html=1;align=center;verticalAlign=middle;whiteSpace=wrap;rounded=0;rotation=270;" parent="1" vertex="1">
          <mxGeometry x="320" y="450" width="30" height="30" as="geometry" />
        </mxCell>
        <mxCell id="roSYkn4s_pg60QvExu8k-20" value="" style="edgeStyle=orthogonalEdgeStyle;rounded=0;orthogonalLoop=1;jettySize=auto;html=1;" parent="1" source="oRODH1_oDBL0VGA5POtY-10" target="roSYkn4s_pg60QvExu8k-19" edge="1">
          <mxGeometry relative="1" as="geometry">
            <mxPoint x="450" y="535" as="sourcePoint" />
            <mxPoint x="360" y="340" as="targetPoint" />
            <Array as="points">
              <mxPoint x="571" y="535" />
            </Array>
          </mxGeometry>
        </mxCell>
        <mxCell id="roSYkn4s_pg60QvExu8k-19" value="i++" style="rounded=0;whiteSpace=wrap;html=1;" parent="1" vertex="1">
          <mxGeometry x="480" y="360" width="180" height="70" as="geometry" />
        </mxCell>
        <mxCell id="roSYkn4s_pg60QvExu8k-22" value="&lt;div&gt;Process&lt;/div&gt;" style="text;html=1;align=center;verticalAlign=middle;whiteSpace=wrap;rounded=0;" parent="1" vertex="1">
          <mxGeometry x="200" y="520" width="60" height="30" as="geometry" />
        </mxCell>
        <mxCell id="roSYkn4s_pg60QvExu8k-23" value="&lt;div&gt;Process&lt;/div&gt;" style="text;html=1;align=center;verticalAlign=middle;whiteSpace=wrap;rounded=0;" parent="1" vertex="1">
          <mxGeometry x="690" y="380" width="60" height="30" as="geometry" />
        </mxCell>
      </root>
    </mxGraphModel>
  </diagram>
</mxfile>
